<?xml version="1.0" encoding="UTF-8"?><svg id="Ebene_1" xmlns="http://www.w3.org/2000/svg" viewBox="0 0 749.18 1024"><defs><style>.cls-1{fill:red;}.cls-2{fill:#e30613;}</style></defs><path class="cls-2" d="M716.39,810.24c-3.53-26.17-24.72-46.45-47.14-60.4-1.55-.96-3.12-1.91-4.69-2.84l54.13-191.23-179.93-137.5,157.82-143.93C596.21,101.81,385.62.68,188.21,30.19c-54.25,8.11-111.54,28.44-140.69,74.91-15.54,24.77-21.32,54.39-24.35,83.48-3.27,31.4-3.62,63.49,3.78,94.18,9.05,37.5,29.24,71.26,50.4,103.52,54.33,82.85,120.49,163.07,210.93,203.55,34.22,15.31,70.89,24.43,105.55,38.7,147.26,60.63,238.13,211.88,253.65,370.37,16.6-46.93,37.57-98.75,83.18-118.71-21.17-13.14-10.96-45.26-14.29-69.95Z"/><rect class="cls-1" x="703.84" y="806.02" width="25.68" height="25.68"/><rect class="cls-1" x="704.05" y="831.69" width="25.68" height="25.68"/><rect class="cls-1" x="708.89" y="856.47" width="25.68" height="25.68"/><rect class="cls-1" x="708.25" y="873.88" width="25.68" height="25.68"/><rect class="cls-1" x="687.26" y="888.58" width="25.68" height="25.68"/><rect class="cls-1" x="671.44" y="908.81" width="25.68" height="25.68"/><rect class="cls-1" x="658.24" y="930.71" width="25.68" height="25.68"/><rect class="cls-1" x="646.99" y="953.78" width="25.68" height="25.68"/><rect class="cls-1" x="637.82" y="977.77" width="25.68" height="25.68"/><rect class="cls-1" x="631.89" y="969.48" width="25.68" height="25.68"/><rect class="cls-1" x="627.66" y="944.15" width="25.68" height="25.68"/><rect class="cls-1" x="623.44" y="918.82" width="25.68" height="25.68"/><rect class="cls-1" x="615.84" y="894.29" width="25.68" height="25.68"/><rect class="cls-1" x="608.24" y="869.76" width="25.68" height="25.68"/><rect class="cls-1" x="599.47" y="845.68" width="25.68" height="25.68"/><rect class="cls-1" x="588.56" y="822.43" width="25.68" height="25.68"/><rect class="cls-1" x="577.65" y="799.18" width="25.68" height="25.68"/><rect class="cls-1" x="564.37" y="777.26" width="25.68" height="25.68"/><rect class="cls-1" x="550.21" y="755.83" width="25.68" height="25.68"/><rect class="cls-1" x="535.67" y="734.71" width="25.68" height="25.68"/><rect class="cls-1" x="518.36" y="715.73" width="25.68" height="25.68"/><rect class="cls-1" x="501.05" y="696.76" width="25.68" height="25.68"/><rect class="cls-1" x="482.19" y="679.47" width="25.68" height="25.68"/><rect class="cls-1" x="461.95" y="663.66" width="25.68" height="25.68"/><rect class="cls-1" x="441.72" y="647.84" width="25.68" height="25.68"/><rect class="cls-1" x="419.11" y="635.69" width="25.68" height="25.68"/><rect class="cls-1" x="396.38" y="623.76" width="25.68" height="25.68"/><rect class="cls-1" x="373.17" y="612.88" width="25.68" height="25.68"/><rect class="cls-1" x="348.99" y="604.22" width="25.68" height="25.68"/><rect class="cls-1" x="324.83" y="595.52" width="25.68" height="25.68"/><rect class="cls-1" x="300.79" y="586.49" width="25.68" height="25.68"/><rect class="cls-1" x="276.74" y="577.47" width="25.68" height="25.68"/><rect class="cls-1" x="254.24" y="565.13" width="25.68" height="25.68"/><rect class="cls-1" x="231.82" y="552.6" width="25.68" height="25.68"/><rect class="cls-1" x="210.88" y="537.86" width="25.68" height="25.68"/><rect class="cls-1" x="190.73" y="521.94" width="25.68" height="25.68"/><rect class="cls-1" x="171.36" y="505.15" width="25.68" height="25.68"/><rect class="cls-1" x="153.4" y="486.8" width="25.68" height="25.68"/><rect class="cls-1" x="135.51" y="468.37" width="25.68" height="25.68"/><rect class="cls-1" x="119.42" y="448.36" width="25.68" height="25.68"/><rect class="cls-1" x="103.32" y="428.35" width="25.68" height="25.68"/><rect class="cls-1" x="88.24" y="407.58" width="25.68" height="25.68"/><rect class="cls-1" x="73.59" y="386.49" width="25.68" height="25.68"/><rect class="cls-1" x="59.34" y="365.13" width="25.68" height="25.68"/><rect class="cls-1" x="45.77" y="343.33" width="25.68" height="25.68"/><rect class="cls-1" x="33.84" y="320.59" width="25.68" height="25.68"/><rect class="cls-1" x="23.42" y="297.19" width="25.68" height="25.68"/><rect class="cls-1" x="15.13" y="272.88" width="25.68" height="25.68"/><rect class="cls-1" x="11.31" y="247.54" width="25.68" height="25.68"/><rect class="cls-1" x="8.27" y="222.06" width="25.68" height="25.68"/><rect class="cls-1" x="9.42" y="196.4" width="25.68" height="25.68"/><rect class="cls-1" x="11.05" y="170.79" width="25.68" height="25.68"/><rect class="cls-1" x="14.88" y="145.41" width="25.68" height="25.68"/><rect class="cls-1" x="21.56" y="120.61" width="25.68" height="25.68"/><rect class="cls-1" x="32.27" y="97.3" width="25.68" height="25.68"/><rect class="cls-1" x="47.99" y="77.2" width="25.68" height="25.68"/><rect class="cls-1" x="66" y="59.14" width="25.68" height="25.68"/><rect class="cls-1" x="87.71" y="45.42" width="25.68" height="25.68"/><rect class="cls-1" x="110.92" y="34.74" width="25.68" height="25.68"/><rect class="cls-1" x="135.01" y="25.86" width="25.68" height="25.68"/><rect class="cls-1" x="160.14" y="20.56" width="25.68" height="25.68"/><rect class="cls-1" x="185.46" y="16.58" width="25.68" height="25.68"/><rect class="cls-1" x="211.06" y="14.61" width="25.68" height="25.68"/><rect class="cls-1" x="236.67" y="12.64" width="25.68" height="25.68"/><rect class="cls-1" x="262.3" y="13.56" width="25.68" height="25.68"/><rect class="cls-1" x="287.93" y="15.16" width="25.68" height="25.68"/><rect class="cls-1" x="313.46" y="17.54" width="25.68" height="25.68"/><rect class="cls-1" x="338.66" y="22.5" width="25.68" height="25.68"/><rect class="cls-1" x="363.85" y="27.47" width="25.68" height="25.68"/><rect class="cls-1" x="388.5" y="34.5" width="25.68" height="25.68"/><rect class="cls-1" x="412.86" y="42.64" width="25.68" height="25.68"/><rect class="cls-1" x="437.14" y="50.98" width="25.68" height="25.68"/><rect class="cls-1" x="460.29" y="62.09" width="25.68" height="25.68"/><rect class="cls-1" x="483.44" y="73.21" width="25.68" height="25.68"/><rect class="cls-1" x="505.83" y="85.68" width="25.68" height="25.68"/><rect class="cls-1" x="527.41" y="99.61" width="25.68" height="25.68"/><rect class="cls-1" x="548.99" y="113.53" width="25.68" height="25.68"/><rect class="cls-1" x="568.82" y="129.83" width="25.68" height="25.68"/><rect class="cls-1" x="588.44" y="146.39" width="25.68" height="25.68"/><rect class="cls-1" x="607.32" y="163.73" width="25.68" height="25.68"/><rect class="cls-1" x="624.59" y="182.74" width="25.68" height="25.68"/><rect class="cls-1" x="641.86" y="201.74" width="25.68" height="25.68"/><rect class="cls-1" x="657.06" y="222.38" width="25.68" height="25.68"/><rect class="cls-1" x="671.53" y="243.6" width="25.68" height="25.68"/><rect class="cls-1" x="680.77" y="264.2" width="25.68" height="25.68"/><rect class="cls-1" x="661.8" y="281.51" width="25.68" height="25.68"/><rect class="cls-1" x="642.82" y="298.81" width="25.68" height="25.68"/><rect class="cls-1" x="623.85" y="316.12" width="25.68" height="25.68"/><rect class="cls-1" x="604.87" y="333.42" width="25.68" height="25.68"/><rect class="cls-1" x="585.9" y="350.73" width="25.68" height="25.68"/><rect class="cls-1" x="566.92" y="368.04" width="25.68" height="25.68"/><rect class="cls-1" x="547.95" y="385.34" width="25.68" height="25.68"/><rect class="cls-1" x="528.97" y="402.65" width="25.68" height="25.68"/><rect class="cls-1" x="543.05" y="418.52" width="25.68" height="25.68"/><rect class="cls-1" x="563.46" y="434.11" width="25.68" height="25.68"/><rect class="cls-1" x="583.86" y="449.7" width="25.68" height="25.68"/><rect class="cls-1" x="604.27" y="465.3" width="25.68" height="25.68"/><rect class="cls-1" x="624.67" y="480.89" width="25.68" height="25.68"/><rect class="cls-1" x="645.08" y="496.48" width="25.68" height="25.68"/><rect class="cls-1" x="665.48" y="512.08" width="25.68" height="25.68"/><rect class="cls-1" x="685.89" y="527.67" width="25.68" height="25.68"/><rect class="cls-1" x="705.7" y="543.46" width="25.68" height="25.68"/><rect class="cls-1" x="698.71" y="568.17" width="25.68" height="25.68"/><rect class="cls-1" x="691.71" y="592.88" width="25.68" height="25.68"/><rect class="cls-1" x="684.72" y="617.59" width="25.68" height="25.68"/><rect class="cls-1" x="677.72" y="642.3" width="25.68" height="25.68"/><rect class="cls-1" x="670.73" y="667.02" width="25.68" height="25.68"/><rect class="cls-1" x="663.73" y="691.73" width="25.68" height="25.68"/><rect class="cls-1" x="656.74" y="716.44" width="25.68" height="25.68"/><rect class="cls-1" x="657.83" y="738.07" width="25.68" height="25.68"/><rect class="cls-1" x="678.27" y="753.59" width="25.68" height="25.68"/><rect class="cls-1" x="694.76" y="773.27" width="25.68" height="25.68"/><rect class="cls-1" x="703.55" y="797.4" width="25.68" height="25.68"/></svg>