<?xml version="1.0" encoding="UTF-8"?><svg id="Ebene_1" xmlns="http://www.w3.org/2000/svg" viewBox="0 0 1280 1024"><defs><style>.cls-1{fill:red;}.cls-2{fill:#e30613;}</style></defs><path class="cls-2" d="M1216.45,125.76c-17.71-11.54-39.12-12.93-59.61-14.04-134.38-7.25-273.44-13.71-398.79,40.66-38.97,16.9-76.83,40.39-103.79,75.8-18.03,2.81-32.64,21.09-44.04,38.05-35.6,52.94-68.71,107.96-99.14,164.75,48.17,19.66,87.29,64.95,103.03,119.26,1.19,4.11,2.27,8.39,1.88,12.69-.92,10.29-9.47,17.19-15.8,24.77-18.82,22.58-19.79,56.59-19.68,87.38.03,10.29.2,21.15,4.95,29.99,8.52,15.88,26.88,18.29,43.08,24.62l-11,242.6c9.32,2.45,18.32.83,26.75-3.37v.24c0-.09.02-.17.03-.26,15.31-7.63,28.74-23.76,38.84-39.51,40.91-63.82,68.73-138.38,117.59-194.86,27.34-31.6,60.3-56.35,92.59-81.52,121.32-94.58,238.69-200.73,320.94-337.79,17.74-29.56,34.1-61.56,37.8-96.85,3.7-35.3-8.04-74.66-35.61-92.62Z"/><rect class="cls-1" x="1212.67" y="121.67" width="25.68" height="25.68"/><rect class="cls-1" x="1227.63" y="142.13" width="25.68" height="25.68"/><rect class="cls-1" x="1236.2" y="166.12" width="25.68" height="25.68"/><rect class="cls-1" x="1239.15" y="191.47" width="25.68" height="25.68"/><rect class="cls-1" x="1236.73" y="216.89" width="25.68" height="25.68"/><rect class="cls-1" x="1230.84" y="241.85" width="25.68" height="25.68"/><rect class="cls-1" x="1220.96" y="265.55" width="25.68" height="25.68"/><rect class="cls-1" x="1209.2" y="288.35" width="25.68" height="25.68"/><rect class="cls-1" x="1196.01" y="310.36" width="25.68" height="25.68"/><rect class="cls-1" x="1181.61" y="331.62" width="25.68" height="25.68"/><rect class="cls-1" x="1167.2" y="352.88" width="25.68" height="25.68"/><rect class="cls-1" x="1152.8" y="374.14" width="25.68" height="25.68"/><rect class="cls-1" x="1137.01" y="394.36" width="25.68" height="25.68"/><rect class="cls-1" x="1120.55" y="414.08" width="25.68" height="25.68"/><rect class="cls-1" x="1104.1" y="433.8" width="25.68" height="25.68"/><rect class="cls-1" x="1087.62" y="453.5" width="25.68" height="25.68"/><rect class="cls-1" x="1069.6" y="471.79" width="25.68" height="25.68"/><rect class="cls-1" x="1051.57" y="490.07" width="25.68" height="25.68"/><rect class="cls-1" x="1033.54" y="508.36" width="25.68" height="25.68"/><rect class="cls-1" x="1015.08" y="526.21" width="25.68" height="25.68"/><rect class="cls-1" x="995.9" y="543.28" width="25.68" height="25.68"/><rect class="cls-1" x="976.72" y="560.36" width="25.68" height="25.68"/><rect class="cls-1" x="957.54" y="577.44" width="25.68" height="25.68"/><rect class="cls-1" x="937.78" y="593.83" width="25.68" height="25.68"/><rect class="cls-1" x="917.81" y="609.98" width="25.68" height="25.68"/><rect class="cls-1" x="897.85" y="626.13" width="25.68" height="25.68"/><rect class="cls-1" x="877.86" y="642.26" width="25.68" height="25.68"/><rect class="cls-1" x="857.77" y="658.26" width="25.68" height="25.68"/><rect class="cls-1" x="837.68" y="674.26" width="25.68" height="25.68"/><rect class="cls-1" x="818.82" y="691.65" width="25.68" height="25.68"/><rect class="cls-1" x="800.4" y="709.55" width="25.68" height="25.68"/><rect class="cls-1" x="783.01" y="728.34" width="25.68" height="25.68"/><rect class="cls-1" x="767.82" y="749.05" width="25.68" height="25.68"/><rect class="cls-1" x="752.94" y="769.96" width="25.68" height="25.68"/><rect class="cls-1" x="740.09" y="792.19" width="25.68" height="25.68"/><rect class="cls-1" x="727.24" y="814.43" width="25.68" height="25.68"/><rect class="cls-1" x="715.09" y="837.05" width="25.68" height="25.68"/><rect class="cls-1" x="703.01" y="859.72" width="25.68" height="25.68"/><rect class="cls-1" x="690.37" y="882.07" width="25.68" height="25.68"/><rect class="cls-1" x="677.45" y="904.26" width="25.68" height="25.68"/><rect class="cls-1" x="663.33" y="925.65" width="25.68" height="25.68"/><rect class="cls-1" x="646.2" y="944.55" width="25.68" height="25.68"/><rect class="cls-1" x="625.28" y="958.06" width="25.68" height="25.68"/><rect class="cls-1" x="604.89" y="954.75" width="25.68" height="25.68"/><rect class="cls-1" x="606.06" y="929.1" width="25.68" height="25.68"/><rect class="cls-1" x="607.22" y="903.44" width="25.68" height="25.68"/><rect class="cls-1" x="608.38" y="877.79" width="25.68" height="25.68"/><rect class="cls-1" x="609.55" y="852.13" width="25.68" height="25.68"/><rect class="cls-1" x="610.71" y="826.48" width="25.68" height="25.68"/><rect class="cls-1" x="611.87" y="800.82" width="25.68" height="25.68"/><rect class="cls-1" x="613.04" y="775.17" width="25.68" height="25.68"/><rect class="cls-1" x="614.2" y="749.51" width="25.68" height="25.68"/><rect class="cls-1" x="615.36" y="723.86" width="25.68" height="25.68"/><rect class="cls-1" x="598.07" y="710.67" width="25.68" height="25.68"/><rect class="cls-1" x="576.97" y="696.86" width="25.68" height="25.68"/><rect class="cls-1" x="568.17" y="673.52" width="25.68" height="25.68"/><rect class="cls-1" x="568.06" y="647.86" width="25.68" height="25.68"/><rect class="cls-1" x="570.05" y="622.31" width="25.68" height="25.68"/><rect class="cls-1" x="575.58" y="597.39" width="25.68" height="25.68"/><rect class="cls-1" x="587.52" y="574.66" width="25.68" height="25.68"/><rect class="cls-1" x="601.63" y="553.55" width="25.68" height="25.68"/><rect class="cls-1" x="597.8" y="529" width="25.68" height="25.68"/><rect class="cls-1" x="588.03" y="505.26" width="25.68" height="25.68"/><rect class="cls-1" x="574.77" y="483.4" width="25.68" height="25.68"/><rect class="cls-1" x="559.67" y="462.7" width="25.68" height="25.68"/><rect class="cls-1" x="540.85" y="445.24" width="25.68" height="25.68"/><rect class="cls-1" x="520.06" y="430.45" width="25.68" height="25.68"/><rect class="cls-1" x="498.53" y="417.6" width="25.68" height="25.68"/><rect class="cls-1" x="511.22" y="395.28" width="25.68" height="25.68"/><rect class="cls-1" x="523.91" y="372.95" width="25.68" height="25.68"/><rect class="cls-1" x="536.59" y="350.62" width="25.68" height="25.68"/><rect class="cls-1" x="549.58" y="328.47" width="25.68" height="25.68"/><rect class="cls-1" x="563.37" y="306.8" width="25.68" height="25.68"/><rect class="cls-1" x="577.16" y="285.14" width="25.68" height="25.68"/><rect class="cls-1" x="590.95" y="263.47" width="25.68" height="25.68"/><rect class="cls-1" x="605.56" y="242.38" width="25.68" height="25.68"/><rect class="cls-1" x="623.26" y="223.87" width="25.68" height="25.68"/><rect class="cls-1" x="645.23" y="211.34" width="25.68" height="25.68"/><rect class="cls-1" x="662.98" y="192.78" width="25.68" height="25.68"/><rect class="cls-1" x="682.38" y="176.15" width="25.68" height="25.68"/><rect class="cls-1" x="703.38" y="161.36" width="25.68" height="25.68"/><rect class="cls-1" x="725.98" y="149.24" width="25.68" height="25.68"/><rect class="cls-1" x="749.14" y="138.22" width="25.68" height="25.68"/><rect class="cls-1" x="773.48" y="130.03" width="25.68" height="25.68"/><rect class="cls-1" x="797.82" y="121.84" width="25.68" height="25.68"/><rect class="cls-1" x="822.17" y="113.7" width="25.68" height="25.68"/><rect class="cls-1" x="847.46" y="109.19" width="25.68" height="25.68"/><rect class="cls-1" x="872.74" y="104.69" width="25.68" height="25.68"/><rect class="cls-1" x="898.02" y="100.19" width="25.68" height="25.68"/><rect class="cls-1" x="923.61" y="98.19" width="25.68" height="25.68"/><rect class="cls-1" x="949.24" y="96.52" width="25.68" height="25.68"/><rect class="cls-1" x="974.87" y="94.85" width="25.68" height="25.68"/><rect class="cls-1" x="1000.53" y="94.57" width="25.68" height="25.68"/><rect class="cls-1" x="1026.21" y="94.79" width="25.68" height="25.68"/><rect class="cls-1" x="1051.89" y="95.01" width="25.68" height="25.68"/><rect class="cls-1" x="1077.56" y="95.79" width="25.68" height="25.68"/><rect class="cls-1" x="1103.21" y="96.99" width="25.68" height="25.68"/><rect class="cls-1" x="1128.87" y="98.18" width="25.68" height="25.68"/><rect class="cls-1" x="1154.5" y="99.68" width="25.68" height="25.68"/><rect class="cls-1" x="1179.86" y="103.43" width="25.68" height="25.68"/><rect class="cls-1" x="1203.61" y="112.92" width="25.68" height="25.68"/><path class="cls-2" d="M658.2,820.31c-3.24-26.77-22.74-47.52-43.35-61.78-1.43-.99-2.86-1.95-4.31-2.9l49.79-195.61-165.48-140.65,145.14-147.23C547.67,95.67,354-7.78,172.45,22.41c-49.89,8.3-102.58,29.09-129.39,76.62-14.29,25.34-19.61,55.63-22.39,85.39-3,32.12-3.33,64.94,3.48,96.34,8.32,38.36,26.89,72.89,46.35,105.89,49.97,84.75,110.81,166.81,193.98,208.2,31.47,15.66,65.2,24.99,97.08,39.59,135.43,62.02,219,216.73,233.27,378.84,15.27-48.01,34.56-101.01,76.5-121.42-19.47-13.44-10.08-46.29-13.14-71.55Z"/><rect class="cls-1" x="645.69" y="818.4" width="25.68" height="25.68"/><rect class="cls-1" x="645.81" y="844.08" width="25.68" height="25.68"/><rect class="cls-1" x="650.93" y="868.78" width="25.68" height="25.68"/><rect class="cls-1" x="648.17" y="886.84" width="25.68" height="25.68"/><rect class="cls-1" x="628.62" y="903.23" width="25.68" height="25.68"/><rect class="cls-1" x="613.85" y="924.24" width="25.68" height="25.68"/><rect class="cls-1" x="602.22" y="947.05" width="25.68" height="25.68"/><rect class="cls-1" x="592.22" y="970.68" width="25.68" height="25.68"/><rect class="cls-1" x="583.88" y="994.96" width="25.68" height="25.68"/><rect class="cls-1" x="579.04" y="980.77" width="25.68" height="25.68"/><rect class="cls-1" x="575.24" y="955.37" width="25.68" height="25.68"/><rect class="cls-1" x="571.22" y="930.02" width="25.68" height="25.68"/><rect class="cls-1" x="564.33" y="905.28" width="25.68" height="25.68"/><rect class="cls-1" x="557.44" y="880.54" width="25.68" height="25.68"/><rect class="cls-1" x="549.37" y="856.21" width="25.68" height="25.68"/><rect class="cls-1" x="539.38" y="832.55" width="25.68" height="25.68"/><rect class="cls-1" x="529.4" y="808.89" width="25.68" height="25.68"/><rect class="cls-1" x="517.09" y="786.4" width="25.68" height="25.68"/><rect class="cls-1" x="503.97" y="764.32" width="25.68" height="25.68"/><rect class="cls-1" x="490.35" y="742.59" width="25.68" height="25.68"/><rect class="cls-1" x="474.06" y="722.74" width="25.68" height="25.68"/><rect class="cls-1" x="457.78" y="702.88" width="25.68" height="25.68"/><rect class="cls-1" x="439.55" y="684.91" width="25.68" height="25.68"/><rect class="cls-1" x="420.17" y="668.06" width="25.68" height="25.68"/><rect class="cls-1" x="400.39" y="651.76" width="25.68" height="25.68"/><rect class="cls-1" x="378.21" y="638.82" width="25.68" height="25.68"/><rect class="cls-1" x="356.03" y="625.87" width="25.68" height="25.68"/><rect class="cls-1" x="332.73" y="615.23" width="25.68" height="25.68"/><rect class="cls-1" x="308.87" y="605.72" width="25.68" height="25.68"/><rect class="cls-1" x="285.11" y="595.98" width="25.68" height="25.68"/><rect class="cls-1" x="261.41" y="586.08" width="25.68" height="25.68"/><rect class="cls-1" x="238.82" y="574.04" width="25.68" height="25.68"/><rect class="cls-1" x="217.01" y="560.48" width="25.68" height="25.68"/><rect class="cls-1" x="196.26" y="545.5" width="25.68" height="25.68"/><rect class="cls-1" x="176.96" y="528.55" width="25.68" height="25.68"/><rect class="cls-1" x="158.17" y="511.1" width="25.68" height="25.68"/><rect class="cls-1" x="141.21" y="491.82" width="25.68" height="25.68"/><rect class="cls-1" x="124.24" y="472.54" width="25.68" height="25.68"/><rect class="cls-1" x="109.12" y="451.79" width="25.68" height="25.68"/><rect class="cls-1" x="94.07" y="430.98" width="25.68" height="25.68"/><rect class="cls-1" x="79.98" y="409.52" width="25.68" height="25.68"/><rect class="cls-1" x="66.37" y="387.74" width="25.68" height="25.68"/><rect class="cls-1" x="53.14" y="365.74" width="25.68" height="25.68"/><rect class="cls-1" x="40.59" y="343.33" width="25.68" height="25.68"/><rect class="cls-1" x="29.61" y="320.12" width="25.68" height="25.68"/><rect class="cls-1" x="20.03" y="296.36" width="25.68" height="25.68"/><rect class="cls-1" x="12.5" y="271.8" width="25.68" height="25.68"/><rect class="cls-1" x="8.88" y="246.44" width="25.68" height="25.68"/><rect class="cls-1" x="5.99" y="220.92" width="25.68" height="25.68"/><rect class="cls-1" x="6.88" y="195.26" width="25.68" height="25.68"/><rect class="cls-1" x="8.13" y="169.62" width="25.68" height="25.68"/><rect class="cls-1" x="12.07" y="144.24" width="25.68" height="25.68"/><rect class="cls-1" x="17.7" y="119.31" width="25.68" height="25.68"/><rect class="cls-1" x="26.78" y="95.29" width="25.68" height="25.68"/><rect class="cls-1" x="40.14" y="73.7" width="25.68" height="25.68"/><rect class="cls-1" x="56.55" y="54.05" width="25.68" height="25.68"/><rect class="cls-1" x="77.56" y="39.28" width="25.68" height="25.68"/><rect class="cls-1" x="100.17" y="27.42" width="25.68" height="25.68"/><rect class="cls-1" x="124" y="17.91" width="25.68" height="25.68"/><rect class="cls-1" x="149.01" y="12.05" width="25.68" height="25.68"/><rect class="cls-1" x="174.36" y="8.45" width="25.68" height="25.68"/><rect class="cls-1" x="199.97" y="6.52" width="25.68" height="25.68"/><rect class="cls-1" x="225.57" y="4.58" width="25.68" height="25.68"/><rect class="cls-1" x="251.14" y="6.64" width="25.68" height="25.68"/><rect class="cls-1" x="276.7" y="9.13" width="25.68" height="25.68"/><rect class="cls-1" x="302.09" y="12.58" width="25.68" height="25.68"/><rect class="cls-1" x="326.9" y="19.19" width="25.68" height="25.68"/><rect class="cls-1" x="351.72" y="25.79" width="25.68" height="25.68"/><rect class="cls-1" x="375.82" y="34.45" width="25.68" height="25.68"/><rect class="cls-1" x="399.32" y="44.81" width="25.68" height="25.68"/><rect class="cls-1" x="422.82" y="55.17" width="25.68" height="25.68"/><rect class="cls-1" x="444.82" y="68.34" width="25.68" height="25.68"/><rect class="cls-1" x="466.51" y="82.09" width="25.68" height="25.68"/><rect class="cls-1" x="488.02" y="96.08" width="25.68" height="25.68"/><rect class="cls-1" x="507.45" y="112.87" width="25.68" height="25.68"/><rect class="cls-1" x="526.88" y="129.66" width="25.68" height="25.68"/><rect class="cls-1" x="545.53" y="147.24" width="25.68" height="25.68"/><rect class="cls-1" x="562.27" y="166.72" width="25.68" height="25.68"/><rect class="cls-1" x="579" y="186.2" width="25.68" height="25.68"/><rect class="cls-1" x="594.29" y="206.74" width="25.68" height="25.68"/><rect class="cls-1" x="607.9" y="228.52" width="25.68" height="25.68"/><rect class="cls-1" x="621.51" y="250.29" width="25.68" height="25.68"/><rect class="cls-1" x="616.57" y="270.03" width="25.68" height="25.68"/><rect class="cls-1" x="598.54" y="288.31" width="25.68" height="25.68"/><rect class="cls-1" x="580.51" y="306.6" width="25.68" height="25.68"/><rect class="cls-1" x="562.48" y="324.89" width="25.68" height="25.68"/><rect class="cls-1" x="544.45" y="343.18" width="25.68" height="25.68"/><rect class="cls-1" x="526.42" y="361.47" width="25.68" height="25.68"/><rect class="cls-1" x="508.39" y="379.76" width="25.68" height="25.68"/><rect class="cls-1" x="490.36" y="398.04" width="25.68" height="25.68"/><rect class="cls-1" x="492.5" y="415.45" width="25.68" height="25.68"/><rect class="cls-1" x="512.06" y="432.08" width="25.68" height="25.68"/><rect class="cls-1" x="531.63" y="448.71" width="25.68" height="25.68"/><rect class="cls-1" x="551.2" y="465.34" width="25.68" height="25.68"/><rect class="cls-1" x="570.77" y="481.97" width="25.68" height="25.68"/><rect class="cls-1" x="590.34" y="498.61" width="25.68" height="25.68"/><rect class="cls-1" x="609.9" y="515.24" width="25.68" height="25.68"/><rect class="cls-1" x="629.47" y="531.87" width="25.68" height="25.68"/><rect class="cls-1" x="646.97" y="549.16" width="25.68" height="25.68"/><rect class="cls-1" x="640.64" y="574.05" width="25.68" height="25.68"/><rect class="cls-1" x="634.3" y="598.94" width="25.68" height="25.68"/><rect class="cls-1" x="627.97" y="623.83" width="25.68" height="25.68"/><rect class="cls-1" x="621.63" y="648.72" width="25.68" height="25.68"/><rect class="cls-1" x="615.3" y="673.6" width="25.68" height="25.68"/><rect class="cls-1" x="608.96" y="698.49" width="25.68" height="25.68"/><rect class="cls-1" x="602.63" y="723.38" width="25.68" height="25.68"/><rect class="cls-1" x="602.36" y="745.98" width="25.68" height="25.68"/><rect class="cls-1" x="622" y="762.51" width="25.68" height="25.68"/><rect class="cls-1" x="637.36" y="783.06" width="25.68" height="25.68"/><rect class="cls-1" x="645.35" y="807.47" width="25.68" height="25.68"/></svg>