<?xml version="1.0" encoding="UTF-8"?><svg id="Ebene_1" xmlns="http://www.w3.org/2000/svg" viewBox="0 0 976.18 1024"><defs><style>.cls-1{fill:red;}.cls-2{fill:#e30613;}</style></defs><path class="cls-2" d="M906.47,44.13c-22.44-13.15-49.58-14.74-75.56-16-170.33-8.26-346.59-15.62-505.47,46.33-49.39,19.26-97.38,46.03-131.56,86.39-22.85,3.2-41.37,24.03-55.83,43.36-45.13,60.33-87.09,123.03-125.66,187.76,61.06,22.4,110.65,74.01,130.6,135.92,1.51,4.68,2.87,9.56,2.39,14.46-1.16,11.73-12.01,19.59-20.02,28.23-23.86,25.73-25.08,64.49-24.95,99.58.04,11.73.26,24.11,6.27,34.18,10.8,18.1,34.07,20.84,54.6,28.06l-13.95,276.48c11.82,2.8,23.22.94,33.91-3.84v.28c0-.1.02-.2.04-.29,19.4-8.7,36.43-27.07,49.23-45.03,51.85-72.73,87.11-157.71,149.05-222.07,34.65-36.01,76.43-64.22,117.36-92.91,153.78-107.78,302.54-228.76,406.79-384.95,22.48-33.68,43.23-70.15,47.92-110.38,4.69-40.23-10.19-85.08-45.13-105.55Z"/><rect class="cls-1" x="904.1" y="40.37" width="25.68" height="25.68"/><rect class="cls-1" x="921" y="59.26" width="25.68" height="25.68"/><rect class="cls-1" x="932.44" y="82.07" width="25.68" height="25.68"/><rect class="cls-1" x="938.61" y="106.98" width="25.68" height="25.68"/><rect class="cls-1" x="938.74" y="132.66" width="25.68" height="25.68"/><rect class="cls-1" x="933.67" y="157.73" width="25.68" height="25.68"/><rect class="cls-1" x="926.29" y="182.23" width="25.68" height="25.68"/><rect class="cls-1" x="915.49" y="205.52" width="25.68" height="25.68"/><rect class="cls-1" x="902.81" y="227.82" width="25.68" height="25.68"/><rect class="cls-1" x="889.11" y="249.52" width="25.68" height="25.68"/><rect class="cls-1" x="873.65" y="270.03" width="25.68" height="25.68"/><rect class="cls-1" x="858.2" y="290.54" width="25.68" height="25.68"/><rect class="cls-1" x="842.74" y="311.05" width="25.68" height="25.68"/><rect class="cls-1" x="827.28" y="331.56" width="25.68" height="25.68"/><rect class="cls-1" x="810.34" y="350.82" width="25.68" height="25.68"/><rect class="cls-1" x="792.86" y="369.64" width="25.68" height="25.68"/><rect class="cls-1" x="775.39" y="388.47" width="25.68" height="25.68"/><rect class="cls-1" x="757.92" y="407.29" width="25.68" height="25.68"/><rect class="cls-1" x="739.9" y="425.55" width="25.68" height="25.68"/><rect class="cls-1" x="720.92" y="442.86" width="25.68" height="25.68"/><rect class="cls-1" x="701.95" y="460.16" width="25.68" height="25.68"/><rect class="cls-1" x="682.97" y="477.47" width="25.68" height="25.68"/><rect class="cls-1" x="664" y="494.78" width="25.68" height="25.68"/><rect class="cls-1" x="643.97" y="510.85" width="25.68" height="25.68"/><rect class="cls-1" x="623.92" y="526.9" width="25.68" height="25.68"/><rect class="cls-1" x="603.87" y="542.95" width="25.68" height="25.68"/><rect class="cls-1" x="583.83" y="559" width="25.68" height="25.68"/><rect class="cls-1" x="563.36" y="574.5" width="25.68" height="25.68"/><rect class="cls-1" x="542.59" y="589.61" width="25.68" height="25.68"/><rect class="cls-1" x="521.82" y="604.71" width="25.68" height="25.68"/><rect class="cls-1" x="501.05" y="619.82" width="25.68" height="25.68"/><rect class="cls-1" x="480.26" y="634.89" width="25.68" height="25.68"/><rect class="cls-1" x="459.38" y="649.85" width="25.68" height="25.68"/><rect class="cls-1" x="438.5" y="664.8" width="25.68" height="25.68"/><rect class="cls-1" x="418.01" y="680.25" width="25.68" height="25.68"/><rect class="cls-1" x="398.67" y="697.15" width="25.68" height="25.68"/><rect class="cls-1" x="379.33" y="714.04" width="25.68" height="25.68"/><rect class="cls-1" x="361.06" y="731.98" width="25.68" height="25.68"/><rect class="cls-1" x="344.83" y="751.87" width="25.68" height="25.68"/><rect class="cls-1" x="328.59" y="771.77" width="25.68" height="25.68"/><rect class="cls-1" x="314.12" y="792.95" width="25.68" height="25.68"/><rect class="cls-1" x="300.23" y="814.55" width="25.68" height="25.68"/><rect class="cls-1" x="286.46" y="836.23" width="25.68" height="25.68"/><rect class="cls-1" x="273.36" y="858.32" width="25.68" height="25.68"/><rect class="cls-1" x="260.27" y="880.41" width="25.68" height="25.68"/><rect class="cls-1" x="246.72" y="902.22" width="25.68" height="25.68"/><rect class="cls-1" x="232.77" y="923.78" width="25.68" height="25.68"/><rect class="cls-1" x="218.81" y="945.34" width="25.68" height="25.68"/><rect class="cls-1" x="202.39" y="965.06" width="25.68" height="25.68"/><rect class="cls-1" x="183.18" y="981.8" width="25.68" height="25.68"/><rect class="cls-1" x="161.59" y="994.15" width="25.68" height="25.68"/><rect class="cls-1" x="136.33" y="996.14" width="25.68" height="25.68"/><rect class="cls-1" x="135.67" y="972.24" width="25.68" height="25.68"/><rect class="cls-1" x="136.97" y="946.6" width="25.68" height="25.68"/><rect class="cls-1" x="138.26" y="920.95" width="25.68" height="25.68"/><rect class="cls-1" x="139.55" y="895.3" width="25.68" height="25.68"/><rect class="cls-1" x="140.85" y="869.65" width="25.68" height="25.68"/><rect class="cls-1" x="142.14" y="844" width="25.68" height="25.68"/><rect class="cls-1" x="143.44" y="818.35" width="25.68" height="25.68"/><rect class="cls-1" x="144.73" y="792.7" width="25.68" height="25.68"/><rect class="cls-1" x="146.02" y="767.05" width="25.68" height="25.68"/><rect class="cls-1" x="147.32" y="741.4" width="25.68" height="25.68"/><rect class="cls-1" x="144.78" y="718.43" width="25.68" height="25.68"/><rect class="cls-1" x="120.47" y="710.21" width="25.68" height="25.68"/><rect class="cls-1" x="99.21" y="696.63" width="25.68" height="25.68"/><rect class="cls-1" x="88.4" y="674.11" width="25.68" height="25.68"/><rect class="cls-1" x="87.71" y="648.45" width="25.68" height="25.68"/><rect class="cls-1" x="88.91" y="622.82" width="25.68" height="25.68"/><rect class="cls-1" x="92.98" y="597.55" width="25.68" height="25.68"/><rect class="cls-1" x="102.08" y="573.74" width="25.68" height="25.68"/><rect class="cls-1" x="117.09" y="553.01" width="25.68" height="25.68"/><rect class="cls-1" x="131.3" y="532.01" width="25.68" height="25.68"/><rect class="cls-1" x="126.71" y="507.55" width="25.68" height="25.68"/><rect class="cls-1" x="116.02" y="484.2" width="25.68" height="25.68"/><rect class="cls-1" x="103.2" y="462.13" width="25.68" height="25.68"/><rect class="cls-1" x="87.55" y="441.77" width="25.68" height="25.68"/><rect class="cls-1" x="69.73" y="423.49" width="25.68" height="25.68"/><rect class="cls-1" x="50.01" y="407.04" width="25.68" height="25.68"/><rect class="cls-1" x="28.25" y="393.68" width="25.68" height="25.68"/><rect class="cls-1" x="5.35" y="382.07" width="25.68" height="25.68"/><rect class="cls-1" x="9.79" y="362.92" width="25.68" height="25.68"/><rect class="cls-1" x="23.51" y="341.21" width="25.68" height="25.68"/><rect class="cls-1" x="37.23" y="319.5" width="25.68" height="25.68"/><rect class="cls-1" x="50.95" y="297.79" width="25.68" height="25.68"/><rect class="cls-1" x="65.05" y="276.34" width="25.68" height="25.68"/><rect class="cls-1" x="79.89" y="255.38" width="25.68" height="25.68"/><rect class="cls-1" x="94.73" y="234.42" width="25.68" height="25.68"/><rect class="cls-1" x="109.57" y="213.46" width="25.68" height="25.68"/><rect class="cls-1" x="124.41" y="192.5" width="25.68" height="25.68"/><rect class="cls-1" x="140.7" y="172.65" width="25.68" height="25.68"/><rect class="cls-1" x="160.29" y="156.12" width="25.68" height="25.68"/><rect class="cls-1" x="183.52" y="145.68" width="25.68" height="25.68"/><rect class="cls-1" x="202.22" y="128.08" width="25.68" height="25.68"/><rect class="cls-1" x="221.18" y="110.81" width="25.68" height="25.68"/><rect class="cls-1" x="242.88" y="97.07" width="25.68" height="25.68"/><rect class="cls-1" x="264.61" y="83.4" width="25.68" height="25.68"/><rect class="cls-1" x="288" y="72.79" width="25.68" height="25.68"/><rect class="cls-1" x="311.39" y="62.18" width="25.68" height="25.68"/><rect class="cls-1" x="335.82" y="54.29" width="25.68" height="25.68"/><rect class="cls-1" x="360.31" y="46.56" width="25.68" height="25.68"/><rect class="cls-1" x="384.79" y="38.82" width="25.68" height="25.68"/><rect class="cls-1" x="409.76" y="32.98" width="25.68" height="25.68"/><rect class="cls-1" x="434.99" y="28.16" width="25.68" height="25.68"/><rect class="cls-1" x="460.21" y="23.34" width="25.68" height="25.68"/><rect class="cls-1" x="485.56" y="19.37" width="25.68" height="25.68"/><rect class="cls-1" x="511.12" y="16.91" width="25.68" height="25.68"/><rect class="cls-1" x="536.69" y="14.46" width="25.68" height="25.68"/><rect class="cls-1" x="562.26" y="12.1" width="25.68" height="25.68"/><rect class="cls-1" x="587.93" y="11.42" width="25.68" height="25.68"/><rect class="cls-1" x="613.6" y="10.74" width="25.68" height="25.68"/><rect class="cls-1" x="639.27" y="10.06" width="25.68" height="25.68"/><rect class="cls-1" x="664.95" y="10.23" width="25.68" height="25.68"/><rect class="cls-1" x="690.63" y="10.73" width="25.68" height="25.68"/><rect class="cls-1" x="716.3" y="11.24" width="25.68" height="25.68"/><rect class="cls-1" x="741.97" y="11.97" width="25.68" height="25.68"/><rect class="cls-1" x="767.63" y="13.09" width="25.68" height="25.68"/><rect class="cls-1" x="793.29" y="14.21" width="25.68" height="25.68"/><rect class="cls-1" x="818.94" y="15.35" width="25.68" height="25.68"/><rect class="cls-1" x="844.56" y="17.14" width="25.68" height="25.68"/><rect class="cls-1" x="869.85" y="21.59" width="25.68" height="25.68"/><rect class="cls-1" x="893.63" y="31.29" width="25.68" height="25.68"/></svg>